<svg width="681" height="126" viewBox="0 0 681 126" fill="none" xmlns="http://www.w3.org/2000/svg">
<path d="M61.134 110.2H62.414L95.6941 33.4H123.214V123H104.654V51.32H103.374L72.6541 123H50.8941L20.174 51.32H18.894V123H0.334045V33.4H27.854L61.134 110.2Z" fill="#1CEEE0"/>
<path d="M189.724 39.8C185.372 39.8 181.276 40.568 177.436 42.104C173.681 43.64 170.396 45.9866 167.58 49.144C164.764 52.3013 162.503 56.312 160.796 61.176C159.175 65.9546 158.364 71.6293 158.364 78.2C158.364 84.7706 159.175 90.488 160.796 95.352C162.503 100.131 164.764 104.099 167.58 107.256C170.396 110.413 173.681 112.76 177.436 114.296C181.276 115.832 185.372 116.6 189.724 116.6C194.076 116.6 198.129 115.832 201.884 114.296C205.724 112.76 209.052 110.413 211.868 107.256C214.684 104.099 216.903 100.131 218.524 95.352C220.231 90.488 221.084 84.7706 221.084 78.2C221.084 71.6293 220.231 65.9546 218.524 61.176C216.903 56.312 214.684 52.3013 211.868 49.144C209.052 45.9866 205.724 43.64 201.884 42.104C198.129 40.568 194.076 39.8 189.724 39.8ZM189.724 30.84C197.404 30.84 204.359 31.864 210.588 33.912C216.903 35.96 222.279 38.9893 226.716 43C231.239 47.0106 234.737 51.96 237.212 57.848C239.687 63.736 240.924 70.52 240.924 78.2C240.924 85.88 239.687 92.664 237.212 98.552C234.737 104.44 231.239 109.389 226.716 113.4C222.279 117.411 216.903 120.44 210.588 122.488C204.359 124.536 197.404 125.56 189.724 125.56C182.044 125.56 175.047 124.536 168.732 122.488C162.417 120.44 156.999 117.411 152.476 113.4C148.039 109.389 144.583 104.44 142.108 98.552C139.719 92.664 138.524 85.88 138.524 78.2C138.524 70.52 139.719 63.736 142.108 57.848C144.583 51.96 148.039 47.0106 152.476 43C156.999 38.9893 162.417 35.96 168.732 33.912C175.047 31.864 182.044 30.84 189.724 30.84Z" fill="#1CEEE0"/>
<path d="M329.934 113.4V123H256.334V33.4H274.894V113.4H329.934Z" fill="#1CEEE0"/>
<path d="M363.949 94.95C363.949 105.717 370.466 111.1 383.499 111.1H407.299V78.8H383.499C370.466 78.8 363.949 84.1833 363.949 94.95ZM407.299 66.9C407.299 58.74 405.146 52.7333 400.839 48.88C396.646 45.0266 391.149 43.1 384.349 43.1C379.249 43.1 374.262 43.8933 369.389 45.48C364.516 46.9533 360.152 48.9933 356.299 51.6L350.349 41.4C352.842 39.7 355.562 38.2266 358.509 36.98C361.569 35.7333 364.686 34.7133 367.859 33.92C371.032 33.0133 374.149 32.3333 377.209 31.88C380.382 31.4266 383.329 31.2 386.049 31.2C393.302 31.2 399.706 32.05 405.259 33.75C410.812 35.45 415.516 37.8866 419.369 41.06C423.222 44.2333 426.112 48.03 428.039 52.45C430.079 56.7566 431.099 61.5733 431.099 66.9V123H383.499C368.086 123 356.696 120.677 349.329 116.03C342.076 111.383 338.449 104.357 338.449 94.95C338.449 85.5433 342.076 78.5166 349.329 73.87C356.696 69.2233 368.086 66.9 383.499 66.9H407.299Z" fill="white"/>
<path d="M478.619 123H454.819V36.3H478.619V123ZM479.469 13.35C479.469 16.75 478.279 19.7533 475.899 22.36C473.633 24.8533 470.573 26.1 466.719 26.1C462.866 26.1 459.749 24.8533 457.369 22.36C455.103 19.7533 453.969 16.75 453.969 13.35C453.969 9.94998 455.103 7.00331 457.369 4.50998C459.749 1.90331 462.866 0.599976 466.719 0.599976C470.459 0.599976 473.519 1.90331 475.899 4.50998C478.279 7.00331 479.469 9.94998 479.469 13.35Z" fill="white"/>
<path d="M546.416 33.4C552.816 33.4 558.533 34.1253 563.568 35.576C568.688 36.9413 572.997 38.9893 576.496 41.72C579.995 44.3653 582.683 47.6506 584.56 51.576C586.437 55.416 587.376 59.8106 587.376 64.76C587.376 71.5866 585.669 77.3466 582.256 82.04C578.843 86.7333 573.936 90.3173 567.536 92.792L588.656 123H567.536L548.72 96.12H518.896V123H500.336V33.4H546.416ZM518.896 43V86.52H546.416C553.157 86.52 558.363 84.7706 562.032 81.272C565.701 77.688 567.536 72.184 567.536 64.76C567.536 57.336 565.701 51.8746 562.032 48.376C558.363 44.792 553.157 43 546.416 43H518.896Z" fill="#1CEEE0"/>
<path d="M621.271 43V72.44H667.991V82.04H621.271V113.4H680.791V123H602.711V33.4H680.791V43H621.271Z" fill="#1CEEE0"/>
</svg>
